<?xml version="1.0" standalone="no"?><!DOCTYPE svg PUBLIC "-//W3C//DTD SVG 1.1//EN" "http://www.w3.org/Graphics/SVG/1.1/DTD/svg11.dtd"><svg t="1689862564590" class="icon" viewBox="0 0 1024 1024" version="1.1" xmlns="http://www.w3.org/2000/svg" p-id="2300" width="32" height="32" xmlns:xlink="http://www.w3.org/1999/xlink"><path d="M555.29 727.24c-9.19 0-16.65-7.44-16.68-16.64-0.02-9.21 7.42-16.7 16.64-16.73l71.59-0.19h0.05c9.19 0 16.65 7.44 16.68 16.64 0.02 9.21-7.42 16.7-16.64 16.73l-71.59 0.19h-0.05z" fill="#353535" p-id="2301"></path><path d="M113.56 728.44a16.683 16.683 0 0 1-11.79-28.48l399.52-399.52c6.51-6.51 17.08-6.51 23.59 0L922.24 697.8c4.76 4.76 6.2 11.93 3.62 18.16a16.686 16.686 0 0 1-15.37 10.32l-129.28 0.35h-0.05c-9.19 0-16.65-7.44-16.68-16.64-0.02-9.21 7.42-16.7 16.64-16.73l89.16-0.24-357.2-357.2-359.14 359.15 309.57-0.84h0.05c9.19 0 16.65 7.44 16.68 16.64 0.02 9.21-7.42 16.7-16.64 16.73l-350 0.95c-0.01-0.01-0.03-0.01-0.04-0.01z" fill="#353535" p-id="2302"></path></svg>